<svg viewBox="0 0 512 512" xmlns="http://www.w3.org/2000/svg" role="img" aria-label="Administración">
  <defs><linearGradient id="g" x1="0" y1="0" x2="1" y2="1"><stop offset="0" stop-color="#6D28D9"/><stop offset="1" stop-color="#8B5CF6"/></linearGradient></defs>
  <rect x="16" y="16" width="480" height="480" rx="118" fill="url(#g)"/>
  <g fill="#ffffff">
    <path d="M256 132l26 14 30-6 14 27 27 14-6 30 14 26-14 26 6 30-27 14-14 27-30-6-26 14-26-14-30 6-14-27-27-14 6-30-14-26 14-26-6-30 27-14 14-27 30 6z"/>
  </g>
  <circle cx="256" cy="256" r="70" fill="#6D28D9"/>
  <circle cx="256" cy="256" r="40" fill="#ffffff"/>
</svg>
