<svg viewBox="0 0 512 512" xmlns="http://www.w3.org/2000/svg" role="img" aria-label="Cocina KDS">
  <defs><linearGradient id="g" x1="0" y1="0" x2="1" y2="1"><stop offset="0" stop-color="#D97706"/><stop offset="1" stop-color="#F59E0B"/></linearGradient></defs>
  <rect x="16" y="16" width="480" height="480" rx="118" fill="url(#g)"/>
  <!-- vapor -->
  <path d="M214 150c0-26 24-26 24-52s-24-26-24-52" fill="none" stroke="#ffffff" stroke-width="14" stroke-linecap="round" opacity="0.85"/>
  <path d="M298 150c0-26 24-26 24-52s-24-26-24-52" fill="none" stroke="#ffffff" stroke-width="14" stroke-linecap="round" opacity="0.85"/>
  <!-- cloche / cuerpo -->
  <path d="M120 300a136 136 0 0 1 272 0Z" fill="#ffffff"/>
  <rect x="104" y="300" width="304" height="34" rx="17" fill="#ffffff"/>
  <circle cx="256" cy="172" r="20" fill="#ffffff"/>
  <rect x="246" y="186" width="20" height="22" fill="#ffffff"/>
  <!-- platos / pedidos -->
  <rect x="150" y="372" width="212" height="22" rx="11" fill="#ffffff" opacity="0.9"/>
  <rect x="150" y="408" width="150" height="20" rx="10" fill="#ffffff" opacity="0.55"/>
</svg>
